<?xml version="1.0" encoding="UTF-8"?>
<svg id="Lager_2" data-name="Lager 2" xmlns="http://www.w3.org/2000/svg" viewBox="0 0 24.38 36.01">
  <defs>
    <style>
      .cls-1 {
        fill: #7b9e81;
      }
    </style>
  </defs>
  <g id="Lager_1-2" data-name="Lager 1">
    <path class="cls-1" d="M3.39,0C1.58,4.27,0,8.76,0,13.4c0,4.64,1.82,9.49,5.64,12.14,1.59,1.1,3.5,1.78,5.43,1.76s3.88-.8,5.19-2.22h0c2.61-.27,5-1.69,6.7-3.69.52-.6.97-1.28,1.21-2.03.36-1.14.21-2.37-.04-3.53-.62-2.79-1.93-5.49-4.04-7.42-2.15-1.97-4.97-3.01-7.66-4.13C9.34,2.99,6.33,1.57,3.39,0ZM14.17,20.53c.18.69-.97,1.88-2.47,2.28-1.5.39-2.68.25-2.97-.85-.18-.69.88-1.27,2.38-1.66,1.5-.39,2.88-.46,3.06.23ZM13.78,16.45c.37,1.29-1.19,1.8-4.35,1.77-3.17-.03-7.11-1.25-7.11-1.87,0-.83,2.75-1.13,5.92-1.1,3.17.03,5.28.27,5.55,1.2ZM8.08,12.75c-.02.31-.6.39-1.27.35-.66-.04-1.16-.19-1.14-.5.03-.48.51-.64,1.18-.6.66.04,1.25.44,1.23.75ZM18.91,12.47c1.76.1,2.35,1.85,2.22,4.27-.13,2.42-1.58,4.54-2.7,4.48-1.12-.06-1.44-2.18-1.31-4.59.13-2.42.68-4.21,1.79-4.15ZM5.9,7.14c1.51.36,2.69,1.52,2.52,2.22-.17.7-1.54.66-3.05.3-1.51-.36-2.58-.91-2.42-1.61.26-1.1,1.44-1.27,2.95-.91ZM14.82,8.28c.28,1.32.1,2.34-.87,2.54-.61.13-1.06-.82-1.34-2.15-.28-1.32-.27-2.52.34-2.65.61-.13,1.59.93,1.87,2.25Z"/>
    <path class="cls-1" d="M15.46,22.46c-.07,0-.14.01-.22.02.27,1.34.34,2.74.34,4.06-.01,2.87-.49,5.73-1.43,8.45-.32.92,1.09,1.46,1.41.54.57-1.67.99-3.4,1.25-5.15.22-1.53.31-3.08.26-4.62-.04-1.18-.13-2.37-.36-3.54-.41.09-.82.17-1.25.23Z"/>
  </g>
</svg>