<?xml version="1.0" encoding="UTF-8"?>
<svg id="Lager_2" data-name="Lager 2" xmlns="http://www.w3.org/2000/svg" viewBox="0 0 177.74 80.37">
  <defs>
    <style>
      .cls-1 {
        fill: #7b9e81;
      }

      .cls-2 {
        fill: #a8605e;
      }
    </style>
  </defs>
  <g id="Lager_1-2" data-name="Lager 1">
    <g>
      <path class="cls-2" d="M1.52,58.23c-.27,0-.49-.22-.5-.49L0,17.54c0-.24.16-.45.39-.5,2.67-.63,5.15-.94,7.37-.94,4.73,0,8.44,1.06,11.02,3.14,2.61,2.11,3.94,5.2,3.94,9.19,0,2.26-.48,4.43-1.43,6.43-.94,1.98-2.22,3.85-3.81,5.56-1.58,1.7-3.44,3.27-5.55,4.67-2,1.33-4.15,2.54-6.38,3.6l-.17,9.05c0,.27-.23.49-.5.49H1.52ZM5.64,44.71c1.26-.79,2.48-1.69,3.66-2.69,1.41-1.19,2.65-2.5,3.7-3.9,1.05-1.39,1.89-2.92,2.51-4.52.61-1.59.93-3.3.93-5.06,0-2.85-.7-5.06-2.09-6.55-1.38-1.48-3.61-2.24-6.65-2.24h-.96c-.17,0-.35,0-.53.03l-.57,24.94Z"/>
      <path class="cls-2" d="M47.74,59.16c-1.89,0-3.69-.88-5.34-2.62-1.59-1.67-2.99-3.91-4.15-6.63-1.15-2.7-2.07-5.81-2.73-9.25-.66-3.44-1-7.01-1-10.62,0-2.97.35-5.39,1.05-7.2.71-1.83,1.69-3.27,2.91-4.26,1.22-.99,2.66-1.65,4.27-1.96,1.56-.3,3.24-.46,4.99-.46s3.48.15,5.05.46c1.61.31,3.05.97,4.27,1.96,1.23.99,2.2,2.43,2.88,4.26.68,1.81,1.02,4.23,1.02,7.2,0,3.62-.34,7.19-1,10.62-.66,3.44-1.58,6.55-2.73,9.25-1.16,2.72-2.54,4.95-4.12,6.63-1.63,1.74-3.44,2.62-5.38,2.62ZM47.74,19.56c-.95,0-1.87.12-2.72.34-.8.21-1.52.67-2.13,1.35-.63.7-1.13,1.74-1.51,3.1-.39,1.39-.58,3.3-.58,5.69,0,3.29.19,6.53.57,9.63.37,3.1.89,5.9,1.55,8.33.65,2.4,1.41,4.35,2.28,5.78.8,1.31,1.65,1.98,2.54,1.98s1.76-.67,2.58-1.98c.89-1.43,1.67-3.37,2.31-5.78.65-2.42,1.17-5.22,1.55-8.33.38-3.11.57-6.35.57-9.63,0-2.38-.2-4.29-.58-5.69-.38-1.36-.89-2.4-1.51-3.1-.62-.69-1.32-1.13-2.13-1.35-.85-.23-1.79-.34-2.78-.34Z"/>
      <path class="cls-2" d="M82.18,58.26c-.13,0-.26-.05-.36-.15-.09-.1-.15-.23-.14-.36l.89-36.63h-10.11c-.28,0-.5-.22-.5-.5v-3.06c0-.28.22-.5.5-.5h24.78c.28,0,.5.22.5.5v3.51c0,.28-.22.5-.5.5h-10.11l.83,36.18c0,.13-.05.26-.14.36-.09.1-.22.15-.36.15h-5.28Z"/>
      <path class="cls-2" d="M119.78,59.16c-1.66,0-3.28-.13-4.82-.4-1.59-.27-3.01-.86-4.23-1.74-1.22-.88-2.23-2.16-3.01-3.79-.77-1.61-1.22-3.75-1.34-6.37-.01-.27.19-.5.45-.52l2.7-.24c.92-.08,1.78-.16,2.57-.24.02,0,.03,0,.05,0,.12,0,.24.04.33.12.1.09.17.22.17.36.08,2.18.33,3.93.75,5.2.41,1.24.94,2.18,1.56,2.8.61.61,1.3.99,2.12,1.15.86.17,1.77.26,2.69.26,2.31,0,3.97-.63,4.95-1.88,1-1.28,1.51-2.93,1.51-4.88,0-1.41-.39-2.57-1.2-3.55-.84-1.02-1.92-1.95-3.19-2.78-1.3-.85-2.72-1.65-4.21-2.4-1.53-.77-2.99-1.63-4.32-2.56-1.36-.95-2.51-2.06-3.42-3.29-.94-1.28-1.42-2.85-1.42-4.68,0-1.53.29-3.12.87-4.7.57-1.58,1.37-3.04,2.35-4.33.99-1.3,2.14-2.39,3.42-3.23,1.32-.87,2.72-1.31,4.18-1.31,1.04,0,2.09.29,3.1.88.98.57,1.93,1.36,2.8,2.35.86.98,1.66,2.18,2.38,3.55.71,1.37,1.32,2.88,1.81,4.5.04.13.02.26-.04.38s-.17.2-.3.24l-5.1,1.5s-.09.02-.14.02c-.1,0-.21-.03-.29-.1-.13-.09-.2-.24-.21-.39-.04-1.56-.2-2.96-.47-4.16-.27-1.2-.61-2.22-1.01-3.04-.39-.79-.82-1.39-1.28-1.79-.42-.36-.84-.54-1.24-.54-.67,0-1.29.27-1.88.82-.64.6-1.21,1.38-1.7,2.33-.5.96-.9,2.03-1.19,3.19-.29,1.15-.44,2.26-.44,3.3,0,1.24.4,2.24,1.21,3.07.86.88,1.96,1.73,3.26,2.5,1.31.79,2.77,1.57,4.31,2.32,1.58.77,3.07,1.67,4.43,2.69,1.38,1.03,2.55,2.25,3.48,3.63.95,1.42,1.44,3.18,1.44,5.23,0,3.46-1.04,6.11-3.08,7.88-2.02,1.75-5.17,2.64-9.36,2.64Z"/>
    </g>
    <g>
      <path class="cls-1" d="M140.6,33.32c2.87-.1,5.71-.67,8.4-1.68,2.42-.91,4.96-2.2,6.55-4.32.83-1.11,1.4-2.42,1.45-3.81.02-.41.33-.75.75-.75.4,0,.77.35.75.75-.12,2.98-1.97,5.46-4.32,7.15-1.21.87-2.55,1.52-3.93,2.09-1.43.59-2.9,1.07-4.41,1.41-1.72.39-3.49.61-5.25.67-.97.03-.97-1.48,0-1.51h0Z"/>
      <path class="cls-1" d="M157.61,49.03c.74-1.05,1.28-2.2,1.58-3.45.3-1.22.41-2.56.04-3.78-.35-1.14-1.22-2.02-2.14-2.73-.96-.74-2.04-1.37-3.17-1.83-1.32-.54-6.73-2.74-8.16-2.86-.41-.03-.75-.32-.75-.75,0-.38.35-.79.75-.75,2.85.25,9.64,3.08,11.94,4.79,1.11.82,2.17,1.79,2.73,3.08.63,1.45.61,3.07.34,4.6-.28,1.59-.94,3.13-1.87,4.45-.24.33-.66.49-1.03.27-.33-.19-.51-.7-.27-1.03h0Z"/>
      <path class="cls-1" d="M147.1,52.55c.28,6.8,3.29,13.46,8.22,18.16,3.57,3.4,8.07,5.81,11.14,9.66,3.05-4.64,6.1-9.3,8.48-14.32,1.38-2.92,2.54-6.01,2.77-9.23.22-3.13-.45-6.26-1.31-9.28-.78-2.75-1.81-5.61-4.02-7.42-1.92-1.58-4.62-2.15-7.01-1.49-2.21.61-4.1,2.27-5.03,4.37-1.57-1.19-3.37-2.16-5.33-2.19-2.65-.03-5.08,1.75-6.39,4.05-1.3,2.3-1.62,5.04-1.51,7.69ZM163.84,68.86c.58-.06.91.87,1.03,2.13s0,2.37-.58,2.43c-.58.06-1.39-1.02-1.52-2.28-.13-1.26.14-2.19,1.06-2.28ZM166.03,59.73c1.43-.2,3.73,1.9,4.38,4.47.66,2.58.25,4.53-2.01,4.85-1.43.2-2.49-1.66-3.14-4.23-.66-2.58-.66-4.89.77-5.09ZM166,52.73c.53-1.08,3.3-1.32,5.64-.17,2.34,1.15,3.68,2.63,2.84,4.33-.53,1.08-2.51.64-4.85-.51-2.34-1.15-4.16-2.57-3.63-3.65ZM162.57,44.37c.44-1.44,3.8-2.28,6.92-1.33,3.11.95,5.06,2.51,4.36,4.78-.44,1.44-2.97,1.29-6.08.34-3.11-.95-5.64-2.35-5.2-3.79ZM157.87,58.79c1.01-.77,1.94-1.03,2.5-.29.35.47-.26,1.23-1.27,2-1.01.77-2.02,1.25-2.37.78-.35-.47.14-1.72,1.15-2.48ZM151.34,54.76c1.54-2.8,4.48-4.51,5.77-3.8,1.29.71.47,3.42-1.06,6.22s-3.21,4.63-4.5,3.92c-2.04-1.12-1.74-3.54-.21-6.34ZM153.89,44.65c1.62-.2,2.82.11,2.97,1.29.09.75-1.09,1.19-2.71,1.4s-3.05.08-3.15-.67c-.09-.75,1.27-1.82,2.89-2.02Z"/>
      <path class="cls-1" d="M144.88,0c-1.81,4.27-3.39,8.76-3.39,13.4,0,4.64,1.82,9.49,5.64,12.14,1.59,1.1,3.5,1.78,5.43,1.76s3.88-.8,5.19-2.22h0c2.61-.27,5-1.69,6.7-3.69.52-.6.97-1.28,1.21-2.03.36-1.14.21-2.37-.04-3.53-.62-2.79-1.93-5.49-4.04-7.42-2.15-1.97-4.97-3.01-7.66-4.13-3.08-1.27-6.1-2.7-9.04-4.27ZM155.66,20.53c.18.69-.97,1.88-2.47,2.28-1.5.39-2.68.25-2.97-.85-.18-.69.88-1.27,2.38-1.66,1.5-.39,2.88-.46,3.06.23ZM155.27,16.45c.37,1.29-1.19,1.8-4.35,1.77-3.17-.03-7.11-1.25-7.11-1.87,0-.83,2.75-1.13,5.92-1.1,3.17.03,5.28.27,5.55,1.2ZM149.57,12.75c-.02.31-.6.39-1.27.35-.66-.04-1.16-.19-1.14-.5.03-.48.51-.64,1.18-.6.66.04,1.25.44,1.23.75ZM160.4,12.47c1.76.1,2.35,1.85,2.22,4.27-.13,2.42-1.58,4.54-2.7,4.48-1.12-.06-1.44-2.18-1.31-4.59.13-2.42.68-4.21,1.79-4.15ZM147.39,7.14c1.51.36,2.69,1.52,2.52,2.22-.17.7-1.54.66-3.05.3-1.51-.36-2.58-.91-2.42-1.61.26-1.1,1.44-1.27,2.95-.91ZM156.31,8.28c.28,1.32.1,2.34-.87,2.54-.61.13-1.06-.82-1.34-2.15-.28-1.32-.27-2.52.34-2.65.61-.13,1.59.93,1.87,2.25Z"/>
    </g>
  </g>
</svg>