<?xml version="1.0" encoding="UTF-8"?>
<svg id="Lager_2" xmlns="http://www.w3.org/2000/svg" version="1.1" viewBox="0 0 172 80.4">
  <!-- Generator: Adobe Illustrator 29.4.0, SVG Export Plug-In . SVG Version: 2.1.0 Build 152)  -->
  <defs>
    <style>
      .st0 {
        fill: #7b9e81;
      }

      .st1 {
        fill: #a8605e;
      }
    </style>
  </defs>
  <g id="Lager_1-2">
    <g>
      <path class="st1" d="M1.5,58.2c-.3,0-.5-.2-.5-.5L0,17.5c0-.2.2-.5.4-.5,2.7-.6,5.1-.9,7.4-.9,4.7,0,8.4,1.1,11,3.1,2.6,2.1,3.9,5.2,3.9,9.2s-.5,4.4-1.4,6.4c-.9,2-2.2,3.8-3.8,5.6-1.6,1.7-3.4,3.3-5.6,4.7-2,1.3-4.2,2.5-6.4,3.6l-.2,9c0,.3-.2.5-.5.5,0,0-3.4,0-3.4,0ZM5.6,44.7c1.3-.8,2.5-1.7,3.7-2.7,1.4-1.2,2.7-2.5,3.7-3.9,1.1-1.4,1.9-2.9,2.5-4.5.6-1.6.9-3.3.9-5.1,0-2.9-.7-5.1-2.1-6.6-1.4-1.5-3.6-2.2-6.7-2.2h-1c-.2,0-.3,0-.5,0l-.6,24.9h0Z"/>
      <path class="st1" d="M44.7,59.2c-1.9,0-3.7-.9-5.3-2.6-1.6-1.7-3-3.9-4.2-6.6-1.2-2.7-2.1-5.8-2.7-9.2s-1-7-1-10.6.3-5.4,1-7.2c.7-1.8,1.7-3.3,2.9-4.3s2.7-1.6,4.3-2c1.6-.3,3.2-.5,5-.5s3.5.1,5,.5c1.6.3,3,1,4.3,2,1.2,1,2.2,2.4,2.9,4.3.7,1.8,1,4.2,1,7.2s-.3,7.2-1,10.6c-.7,3.4-1.6,6.5-2.7,9.2-1.2,2.7-2.5,5-4.1,6.6-1.6,1.7-3.4,2.6-5.4,2.6h0ZM44.7,19.6c-1,0-1.9.1-2.7.3-.8.2-1.5.7-2.1,1.4-.6.7-1.1,1.7-1.5,3.1-.4,1.4-.6,3.3-.6,5.7s.2,6.5.6,9.6c.4,3.1.9,5.9,1.5,8.3.7,2.4,1.4,4.3,2.3,5.8.8,1.3,1.7,2,2.5,2s1.8-.7,2.6-2c.9-1.4,1.7-3.4,2.3-5.8.7-2.4,1.2-5.2,1.5-8.3s.6-6.3.6-9.6-.2-4.3-.6-5.7c-.4-1.4-.9-2.4-1.5-3.1-.6-.7-1.3-1.1-2.1-1.4-.8-.2-1.8-.3-2.8-.3h0Z"/>
      <path class="st1" d="M75.2,58.3c-.1,0-.3,0-.4-.2,0,0-.2-.2-.1-.4l.9-36.6h-10.1c-.3,0-.5-.2-.5-.5v-3.1c0-.3.2-.5.5-.5h24.8c.3,0,.5.2.5.5v3.5c0,.3-.2.5-.5.5h-10.1l.8,36.2c0,.1,0,.3-.1.4,0,0-.2.2-.4.2h-5.3Z"/>
      <path class="st1" d="M109.8,59.2c-1.7,0-3.3-.1-4.8-.4-1.6-.3-3-.9-4.2-1.7s-2.2-2.2-3-3.8c-.8-1.6-1.2-3.8-1.3-6.4,0-.3.2-.5.4-.5l2.7-.2c.9,0,1.8-.2,2.6-.2h0c.1,0,.2,0,.3.1,0,0,.2.2.2.4,0,2.2.3,3.9.8,5.2.4,1.2.9,2.2,1.6,2.8.6.6,1.3,1,2.1,1.2.9.2,1.8.3,2.7.3,2.3,0,4-.6,4.9-1.9,1-1.3,1.5-2.9,1.5-4.9s-.4-2.6-1.2-3.5c-.8-1-1.9-2-3.2-2.8-1.3-.8-2.7-1.7-4.2-2.4-1.5-.8-3-1.6-4.3-2.6-1.4-1-2.5-2.1-3.4-3.3-.9-1.3-1.4-2.9-1.4-4.7s.3-3.1.9-4.7c.6-1.6,1.4-3,2.3-4.3,1-1.3,2.1-2.4,3.4-3.2,1.3-.9,2.7-1.3,4.2-1.3s2.1.3,3.1.9c1,.6,1.9,1.4,2.8,2.4.9,1,1.7,2.2,2.4,3.5.7,1.4,1.3,2.9,1.8,4.5,0,.1,0,.3,0,.4s-.2.2-.3.2l-5.1,1.5s0,0-.1,0c0,0-.2,0-.3-.1-.1,0-.2-.2-.2-.4,0-1.6-.2-3-.5-4.2-.3-1.2-.6-2.2-1-3-.4-.8-.8-1.4-1.3-1.8-.4-.4-.8-.5-1.2-.5-.7,0-1.3.3-1.9.8-.6.6-1.2,1.4-1.7,2.3-.5,1-.9,2-1.2,3.2-.3,1.1-.4,2.3-.4,3.3s.4,2.2,1.2,3.1c.9.9,2,1.7,3.3,2.5,1.3.8,2.8,1.6,4.3,2.3,1.6.8,3.1,1.7,4.4,2.7,1.4,1,2.5,2.2,3.5,3.6.9,1.4,1.4,3.2,1.4,5.2,0,3.5-1,6.1-3.1,7.9-2,1.8-5.2,2.6-9.4,2.6h0Z"/>
    </g>
    <g>
      <path class="st0" d="M133.6,33.3c2.9,0,5.7-.7,8.4-1.7,2.4-.9,5-2.2,6.6-4.3.8-1.1,1.4-2.4,1.4-3.8,0-.4.3-.8.8-.8s.8.4.8.8c-.1,3-2,5.5-4.3,7.1-1.2.9-2.6,1.5-3.9,2.1-1.4.6-2.9,1.1-4.4,1.4-1.7.4-3.5.6-5.2.7-1,0-1-1.5,0-1.5h0Z"/>
      <path class="st0" d="M150.6,49c.7-1,1.3-2.2,1.6-3.5.3-1.2.4-2.6,0-3.8-.4-1.1-1.2-2-2.1-2.7-1-.7-2-1.4-3.2-1.8-1.3-.5-6.7-2.7-8.2-2.9-.4,0-.8-.3-.8-.8s.4-.8.8-.8c2.9.2,9.6,3.1,11.9,4.8,1.1.8,2.2,1.8,2.7,3.1.6,1.5.6,3.1.3,4.6-.3,1.6-.9,3.1-1.9,4.5-.2.3-.7.5-1,.3-.3-.2-.5-.7-.3-1h0Z"/>
      <path class="st0" d="M140.1,52.5c.3,6.8,3.3,13.5,8.2,18.2,3.6,3.4,8.1,5.8,11.1,9.7,3.1-4.6,6.1-9.3,8.5-14.3,1.4-2.9,2.5-6,2.8-9.2.2-3.1-.4-6.3-1.3-9.3-.8-2.8-1.8-5.6-4-7.4-1.9-1.6-4.6-2.2-7-1.5-2.2.6-4.1,2.3-5,4.4-1.6-1.2-3.4-2.2-5.3-2.2-2.6,0-5.1,1.8-6.4,4-1.3,2.3-1.6,5-1.5,7.7h0ZM156.8,68.9c.6,0,.9.9,1,2.1s0,2.4-.6,2.4-1.4-1-1.5-2.3.1-2.2,1.1-2.3h0ZM159,59.7c1.4-.2,3.7,1.9,4.4,4.5.7,2.6.2,4.5-2,4.8-1.4.2-2.5-1.7-3.1-4.2-.7-2.6-.7-4.9.8-5.1h0ZM159,52.7c.5-1.1,3.3-1.3,5.6-.2s3.7,2.6,2.8,4.3c-.5,1.1-2.5.6-4.9-.5-2.3-1.2-4.2-2.6-3.6-3.7h0ZM155.6,44.4c.4-1.4,3.8-2.3,6.9-1.3,3.1,1,5.1,2.5,4.4,4.8-.4,1.4-3,1.3-6.1.3s-5.6-2.3-5.2-3.8ZM150.9,58.8c1-.8,1.9-1,2.5-.3.4.5-.3,1.2-1.3,2-1,.8-2,1.2-2.4.8-.4-.5.1-1.7,1.1-2.5h0ZM144.3,54.8c1.5-2.8,4.5-4.5,5.8-3.8,1.3.7.5,3.4-1.1,6.2s-3.2,4.6-4.5,3.9c-2-1.1-1.7-3.5-.2-6.3ZM146.9,44.7c1.6-.2,2.8.1,3,1.3,0,.8-1.1,1.2-2.7,1.4s-3.1,0-3.1-.7c0-.8,1.3-1.8,2.9-2Z"/>
      <path class="st0" d="M137.9,0c-1.8,4.3-3.4,8.8-3.4,13.4s1.8,9.5,5.6,12.1c1.6,1.1,3.5,1.8,5.4,1.8s3.9-.8,5.2-2.2h0c2.6-.3,5-1.7,6.7-3.7.5-.6,1-1.3,1.2-2,.4-1.1.2-2.4,0-3.5-.6-2.8-1.9-5.5-4-7.4-2.1-2-5-3-7.7-4.1-3.1-1.3-6.1-2.7-9-4.3h0ZM148.7,20.5c.2.7-1,1.9-2.5,2.3-1.5.4-2.7.2-3-.9-.2-.7.9-1.3,2.4-1.7s2.9-.5,3.1.2ZM148.3,16.5c.4,1.3-1.2,1.8-4.4,1.8-3.2,0-7.1-1.2-7.1-1.9s2.8-1.1,5.9-1.1,5.3.3,5.6,1.2h0ZM142.6,12.8c0,.3-.6.4-1.3.4-.7,0-1.2-.2-1.1-.5,0-.5.5-.6,1.2-.6.7,0,1.2.4,1.2.8h0ZM153.4,12.5c1.8.1,2.4,1.9,2.2,4.3-.1,2.4-1.6,4.5-2.7,4.5s-1.4-2.2-1.3-4.6c.1-2.4.7-4.2,1.8-4.1h0ZM140.4,7.1c1.5.4,2.7,1.5,2.5,2.2s-1.5.7-3.1.3c-1.5-.4-2.6-.9-2.4-1.6.3-1.1,1.4-1.3,2.9-.9ZM149.3,8.3c.3,1.3.1,2.3-.9,2.5-.6.1-1.1-.8-1.3-2.1-.3-1.3-.3-2.5.3-2.7s1.6.9,1.9,2.3h0Z"/>
    </g>
  </g>
</svg>