<svg width="42" height="42" viewBox="0 0 42 42" fill="none" xmlns="http://www.w3.org/2000/svg">
<rect width="42" height="42" rx="2" fill="#7B9E81"/>
<path d="M21.3581 28.31C21.0324 28.31 20.7568 28.2223 20.5314 28.0469C20.3309 27.8715 20.2307 27.6461 20.2307 27.3705V22.4476H15.3079C15.0323 22.4476 14.8068 22.3474 14.6315 22.147C14.4561 21.9215 14.3684 21.6585 14.3684 21.3579C14.3684 21.0322 14.4561 20.7691 14.6315 20.5687C14.8068 20.3432 15.0323 20.2305 15.3079 20.2305H20.2307V15.3452C20.2307 15.0947 20.3309 14.8692 20.5314 14.6688C20.7568 14.4684 21.0324 14.3682 21.3581 14.3682C21.6838 14.3682 21.9343 14.4684 22.1097 14.6688C22.3101 14.8692 22.4103 15.0947 22.4103 15.3452V20.2305H27.3331C27.5586 20.2305 27.7716 20.3432 27.972 20.5687C28.1724 20.7691 28.2726 21.0322 28.2726 21.3579C28.2726 21.6585 28.1724 21.9215 27.972 22.147C27.7716 22.3474 27.5586 22.4476 27.3331 22.4476H22.4103V27.3705C22.4103 27.6461 22.3101 27.8715 22.1097 28.0469C21.9343 28.2223 21.6838 28.31 21.3581 28.31Z" fill="white"/>
</svg>
